<svg version="1.1" id="Layer_1" xmlns="http://www.w3.org/2000/svg" xmlns:xlink="http://www.w3.org/1999/xlink" x="0px" y="0px" viewBox="0 0 249 59.3" style="enable-background:new 0 0 249 59.3;" xml:space="preserve">
 <style type="text/css">
  .st0{fill:#E50021;}
	.st1{fill:#B8C900;}
	.st2{fill:#0061B0;}
	.st3{fill:#241A17;}
 </style>
 <g>
  <path class="st0" d="M78.7,20H59.4c0,0-4.7,0.1-7.2-3.7C49.7,12.6,41.6,0,41.6,0h19.8c0,0,3.9,0.1,6.3,3.4
		C70.2,6.8,78.7,20,78.7,20">
  </path>
  <path class="st1" d="M78.7,25.2H59.4c0,0-4.7-0.1-7.2,3.7c-2.5,3.8-10.6,16.3-10.6,16.3h19.8c0,0,3.9-0.1,6.3-3.4
		C70.2,38.5,78.7,25.2,78.7,25.2">
  </path>
  <path class="st2" d="M44.1,28.6c1.3-2.1,3.4-3.4,3.4-3.4H27.1c0,0-4.7-0.1-7.2,3.7C17.4,32.7,0,59.3,0,59.3h19.8
		c0,0,3.9-0.1,6.3-3.4C28,53.3,39.3,36,44.1,28.6">
  </path>
  <path class="st3" d="M90.6,25.5h6c2.9,0,5.5,0.1,6.8,1.1c1.9,1.5,2.5,3.5,2.5,5.4c0,2.7-1,5.9-5,6.6c-1.4,0.3-3.2,0.1-5.8,0.1v6.8
		h-4.6V25.5z M95.2,34.7L95.2,34.7c1.9,0,4,0.2,4.7-0.3c0.7-0.5,1.3-1.2,1.3-2.3c0-1.2-0.4-1.5-1.1-2.1c-0.7-0.6-2.7-0.4-4.2-0.4
		h-0.6V34.7z">
  </path>
  <polygon class="st3" points="108.4,25.5 121.3,25.5 121.3,29.8 113.1,29.8 113.1,33.4 121.1,33.4 121.1,37.6 113.1,37.6 
		113.1,41.2 121.3,41.2 121.3,45.6 108.4,45.6 	">
  </polygon>
  <path class="st3" d="M124.7,25.5h6c2.5,0,5.8-0.3,7.2,1.1c1.4,1.4,2.3,2.3,2.3,4.6c0,1.4-0.3,3.2-1.1,4.1c-0.8,0.9-1.8,1.9-3.3,2.1
		l6.4,8.2h-5.8l-5.6-7.7l-0.9,0l0,7.7h-5.2V25.5z M129.9,34.6L129.9,34.6c1.8,0,3.8,0.2,4.5-0.5c0.6-0.6,1-0.6,1-2.3
		c0-1-0.5-1.4-0.9-1.7c-0.7-0.7-4.7-0.4-4.7-0.4V34.6z">
  </path>
  <polygon class="st3" points="142,25.5 157.4,25.5 157.4,29.8 152,29.8 152,45.6 147.4,45.6 147.4,29.8 142,29.8 	">
  </polygon>
  <path class="st3" d="M162.9,25.5h5l6.6,20h-4.8l-1.1-3.5h-6.6l-1.3,3.5h-4.7L162.9,25.5z M167.4,38.2L167.4,38.2l-2.1-6.8l-1.9,6.8
		H167.4z">
  </path>
  <path class="st3" d="M237.4,25.5h5l6.6,20h-4.8l-1.1-3.5h-6.6l-1.3,3.5h-4.7L237.4,25.5z M241.9,38.2L241.9,38.2l-2.1-6.8l-2,6.8
		H241.9z">
  </path>
  <polygon class="st3" points="179.2,25.5 183.7,25.5 187.3,36.3 191.1,25.5 195.8,25.5 198.6,45.6 193.9,45.6 192.6,33.5 188,45.6 
		186.5,45.6 182.2,33.7 180.7,45.6 176.1,45.6 	">
  </polygon>
  <rect x="201.5" y="25.5" class="st3" width="4.7" height="20">
  </rect>
  <polygon class="st3" points="210.3,25.5 214.8,25.5 223.4,37.9 223.5,25.5 228,25.5 228,45.6 223.6,45.6 214.8,33 214.8,45.6 
		210.3,45.6 	">
  </polygon>
 </g>
</svg>